<?xml version="1.0" encoding="UTF-8" standalone="no"?>
<!-- Created with Inkscape (http://www.inkscape.org/) -->

<svg
   width="118.50669mm"
   height="118.55148mm"
   viewBox="0 0 118.50669 118.55148"
   version="1.1"
   id="svg1"
   xml:space="preserve"
   inkscape:version="1.4.4 (dcaf3e7, 2026-05-05)"
   sodipodi:docname="logo.svg"
   xmlns:inkscape="http://www.inkscape.org/namespaces/inkscape"
   xmlns:sodipodi="http://sodipodi.sourceforge.net/DTD/sodipodi-0.dtd"
   xmlns="http://www.w3.org/2000/svg"
   xmlns:svg="http://www.w3.org/2000/svg"><sodipodi:namedview
     id="namedview1"
     pagecolor="#505050"
     bordercolor="#eeeeee"
     borderopacity="1"
     inkscape:showpageshadow="0"
     inkscape:pageopacity="0"
     inkscape:pagecheckerboard="0"
     inkscape:deskcolor="#505050"
     inkscape:document-units="mm"
     inkscape:zoom="1.0829873"
     inkscape:cx="497.23573"
     inkscape:cy="179.59582"
     inkscape:window-width="3008"
     inkscape:window-height="1634"
     inkscape:window-x="0"
     inkscape:window-y="30"
     inkscape:window-maximized="0"
     inkscape:current-layer="layer1" /><defs
     id="defs1" /><g
     inkscape:label="Ebene 1"
     inkscape:groupmode="layer"
     id="layer1"
     transform="translate(-50.980432,-85.016405)"><path
       style="fill:#fabb05"
       d="m 76.152936,180.09375 c -3.52875,-1.73925 -3.20929,-3.24362 2.96831,-13.97795 2.84682,-4.9467 5.17604,-9.14365 5.17604,-9.32656 0,-0.4437 10.04301,1.97115 10.66579,2.5646 1.15268,1.0984 2.93637,10.75212 2.06075,11.15326 -0.52392,0.24001 -4.69927,2.5942 -9.27855,5.23153 -9.06119,5.21857 -9.50341,5.38471 -11.59234,4.35512 z m 55.905024,-4.71935 c -4.94384,-2.83766 -9.13997,-5.15938 -9.32474,-5.15938 -0.44361,0 1.96852,-10.02657 2.56609,-10.66651 1.06501,-1.14053 10.75218,-2.92459 11.15122,-2.05369 0.23845,0.52044 2.59136,4.69293 5.22869,9.27222 5.77314,10.0241 6.05168,11.30479 2.87933,13.23899 -2.06228,1.25739 -2.56525,1.07104 -12.50059,-4.63163 z M 84.297286,131.75712 c 0,-0.16896 -2.32922,-4.3545 -5.17604,-9.30121 -5.76017,-10.00897 -5.95555,-10.57421 -4.40696,-12.74899 2.02978,-2.85058 3.12786,-2.57056 13.68744,3.49041 4.94383,2.83765 9.1479,5.15937 9.34237,5.15937 0.42495,0 0.43359,-0.0428 -1.22743,6.08541 -1.4615,5.39214 -0.44851,4.54159 -7.65531,6.42772 -2.95532,0.77345 -4.56407,1.0862 -4.56407,0.88729 z m 46.612704,-1.19459 c -3.2767,-0.90797 -5.46004,-1.64528 -5.58812,-1.88709 -0.11562,-0.21828 -0.77351,-2.53198 -1.46196,-5.14156 -0.68846,-2.60957 -1.31943,-4.92105 -1.40215,-5.13662 -0.1015,-0.2645 -0.0434,-0.32584 0.17857,-0.18863 0.20365,0.12586 3.79645,-1.78529 9.43144,-5.01696 10.1147,-5.8008 10.57284,-5.95944 12.74457,-4.41303 2.84305,2.02443 2.56081,3.12812 -3.49941,13.68431 -2.83878,4.94484 -5.10471,9.13944 -5.03538,9.32135 0.0693,0.1819 0.10001,0.31671 0.0682,0.29959 -0.0318,-0.0171 -2.47791,-0.70174 -5.43576,-1.52136 z"
       id="path8"
       sodipodi:nodetypes="sssssssssssssssssssssssssssssssss" /><path
       style="fill:#04182b"
       d="m 108.21681,203.13842 c -1.81685,-0.89549 -1.12517,1.23428 -7.83573,-24.12733 -2.824394,-10.67439 -5.236104,-19.50352 -5.359354,-19.62029 -0.12326,-0.11677 -9.45145,-2.6785 -20.72931,-5.69274 -24.01311,-6.41798 -23.57748,-6.23192 -23.22321,-9.91888 0.29747,-3.09584 -0.88266,-2.63898 23.44585,-9.07649 11.25479,-2.9781 20.55927,-5.51695 20.67661,-5.64189 0.11734,-0.12493 2.67992,-9.45449 5.694614,-20.73235 6.41899,-24.013246 6.2329,-23.577686 9.92207,-23.223206 3.09041,0.29695 2.65707,-0.81195 8.97425,22.964506 6.30697,23.73807 5.27774,20.9524 7.99867,21.64879 37.77469,9.668 41.97947,11.18222 41.69297,15.01436 -0.23586,3.15476 0.41468,2.88012 -18.989,8.01636 -24.67257,6.53093 -24.92655,6.59991 -25.13857,6.82705 -0.10967,0.11747 -2.66674,9.44093 -5.68239,20.7188 -3.61966,13.5367 -5.68903,20.82834 -6.08924,21.45604 -1.07879,1.69201 -3.4791,2.31345 -5.35823,1.38727 z"
       id="path7" /></g></svg>
